# xmcd
#
# Track frame offsets:
# 150
# 16201
# 33964
# 56410
# 74342
# 93833
# 112112
# 132816
# 150552
# 173039
# 192795
# 211074
# 227166
# 240443
# 257190
# 286377
#
# Disc length: 4085 seconds
#
#
# Revision: 4
# Processed by: cddbd v1.5.2PL0 Copyright (c) Steve Scherf et al.
# Submitted via: FreeRIP 2.951 
#
DISCID=d00ff310
DTITLE=Araketu - mult artist
DYEAR=2004
DGENRE=Pagode
TTITLE0=Toma la, da ca
TTITLE1=Ara ketu bom demais
TTITLE2=Amantes
TTITLE3=Carta branca
TTITLE4=Face oculta
TTITLE5=Amor e devocao
TTITLE6=Ta na cara
TTITLE7=Sempre sera
TTITLE8=Minha razao de viver
TTITLE9=Mal acostumada
TTITLE10=Fanfarra
TTITLE11=Pra levantar poeira
TTITLE12=Avisa a vizinha (vixe maria)
TTITLE13=O, meu pai
TTITLE14=Cobertor
TTITLE15=Pipoca
EXTD=YEAR: 2004
EXTT0=
EXTT1=
EXTT2=
EXTT3=
EXTT4=
EXTT5=
EXTT6=
EXTT7=
EXTT8=
EXTT9=
EXTT10=
EXTT11=
EXTT12=
EXTT13=
EXTT14=
EXTT15=
PLAYORDER=
